<?xml version="1.0" encoding="iso-8859-1"?>
<!-- Uploaded to: SVG Repo, www.svgrepo.com, Generator: SVG Repo Mixer Tools -->
<svg fill="#000000" height="800px" width="800px" version="1.1" id="Layer_1" xmlns="http://www.w3.org/2000/svg" xmlns:xlink="http://www.w3.org/1999/xlink" 
	 viewBox="0 0 512 512" xml:space="preserve">
<g>
	<g>
		<path d="M506.285,271.866l-52.721-44.247c48.077-46.525,17.548-133.893-51.709-137.158
			c-27.509-53.085-97.843-66.035-142.446-26.423c-1.911,1.701-4.908,1.699-6.819,0C207.894,24.344,137.587,37.509,110.144,90.46
			c-69.239,3.266-99.801,90.631-51.712,137.16L5.714,271.866c-6.768,5.68-7.65,15.771-1.971,22.54
			c22.611,26.949,59.006,34.003,88.593,21.688c-12.934,105.573,59.526,154.963,163.64,154.97c0.009,0,0.016,0.001,0.023,0.001
			c0.007,0,0.016-0.001,0.023-0.001c103.716-0.007,176.63-49.11,163.649-154.967c29.582,12.309,65.97,5.259,88.583-21.692
			C513.936,287.637,513.053,277.546,506.285,271.866z M58.863,289.771c-6.464-0.565-12.6-2.469-18.096-5.548l45.996-38.604
			c0.563,0.213,9.309,3.725,20.769,4.805C104.649,274.021,83.466,291.913,58.863,289.771z M256,376.162
			c-18.663,0-33.171-14.895-35.605-21.631c12.397-7.518,58.805-7.524,71.209,0C289.17,361.268,274.663,376.162,256,376.162z
			 M272,438.609v-32.371c29.278-7.012,51.945-31.98,51.945-53c0-18.916-16.272-27.386-25.971-30.75
			c-21.623-7.5-62.317-7.503-83.95,0c-22.597,7.839-25.971,22.63-25.971,30.75c0,21.021,22.668,45.988,51.947,53v32.371
			c-97.132-5.597-137.392-57.42-107.25-159.561c6.326,5.312,13.282,9.629,20.623,12.963c-8.353,2.833-14.372,10.721-14.372,20.031
			c0,11.69,9.476,21.166,21.166,21.166s21.166-9.476,21.166-21.166c0-4.886-1.672-9.373-4.453-12.956
			c27.786,4.481,57.497-3.583,79.121-25.002c21.905,21.7,51.953,29.602,79.875,24.857c-2.847,3.605-4.56,8.148-4.56,13.099
			c0,11.69,9.476,21.166,21.166,21.166s21.166-9.476,21.166-21.166c0-9.452-6.197-17.451-14.749-20.17
			c7.254-3.319,14.119-7.593,20.355-12.829C409.296,380.801,369.535,432.99,272,438.609z M392.701,218.621
			c-7.134-0.523-13.756,3.75-16.206,10.479c-16.798,46.163-80.318,53.633-106.924,11.015c-6.331-10.139-20.954-9.911-27.143,0
			c-26.421,42.313-89.999,35.496-106.924-11.015c-2.449-6.727-9.069-11.003-16.204-10.48c-0.032,0.002-0.065,0.001-0.097,0.003
			c-9.748,0.776-18.914-1.167-27.26-5.777c-45.1-24.842-24.459-94.639,27.165-90.268c7.191,0.614,13.901-3.662,16.384-10.436
			c14.561-39.741,64.451-52.066,95.848-24.18c14.058,12.483,35.261,12.483,49.317,0c31.459-27.942,81.308-15.506,95.848,24.18
			c2.483,6.776,9.211,11.052,16.384,10.436c51.86-4.42,72.776,66.575,26.039,90.864C410.466,217.84,401.928,219.265,392.701,218.621
			z M453.136,289.771c-24.605,2.144-45.782-15.742-48.669-39.347c6.651-0.627,13.89-2.204,20.769-4.805l45.996,38.604
			C465.737,287.302,459.6,289.206,453.136,289.771z"/>
	</g>
</g>
</svg>